<svg width="639" height="515" viewBox="0 0 639 515" fill="none" xmlns="http://www.w3.org/2000/svg">
<path d="M456 260C456 366.039 370.039 452 264 452C157.961 452 72 366.039 72 260C72 153.961 157.961 68 264 68C370.039 68 456 153.961 456 260Z" fill="white"/>
<path d="M257.5 0C399.713 0 515 115.287 515 257.5C507.5 488.5 650.885 479.016 638 488.5C602 515 330.16 515 257.5 515C115.287 515 0 399.713 0 257.5C0 115.287 115.287 0 257.5 0ZM251 138V181.429H145V227.429H280.036L136.495 361.047L167.838 394.717L233.857 333.26C237.781 339.423 242.505 344.978 247.724 349.923C262.639 364.056 282.073 373.828 300.504 380.714C323.019 389.126 346.44 394.104 363.887 396.987C372.688 398.442 380.146 399.391 385.444 399.98C388.097 400.276 390.218 400.482 391.705 400.616C392.449 400.683 393.035 400.732 393.451 400.766C393.659 400.782 393.825 400.795 393.946 400.805L394.146 400.82C394.152 400.821 394.159 400.821 394.164 400.821C394.166 400.821 394.171 400.822 394.171 400.822C394.174 400.823 394.178 400.822 395.833 377.882C397.45 355.477 397.491 354.954 397.494 354.942H397.504C397.498 354.942 397.481 354.941 397.453 354.938C397.398 354.934 397.299 354.927 397.16 354.916C396.881 354.893 396.436 354.856 395.839 354.802C394.644 354.694 392.842 354.52 390.529 354.263C385.897 353.747 379.257 352.904 371.386 351.604C355.489 348.977 335.27 344.598 316.604 337.624C300.926 331.766 287.938 324.657 279.364 316.532C273.872 311.328 270.531 306.104 269.097 300.457L347.548 227.429H403V181.429H297V138H251Z" fill="#095E2D"/>
</svg>
