<svg width="681" height="516" viewBox="0 0 681 516" fill="none" xmlns="http://www.w3.org/2000/svg">
<path d="M461.097 260.934C461.097 366.972 375.135 452.934 269.097 452.934C163.058 452.934 77.0967 366.972 77.0967 260.934C77.0967 154.895 163.058 68.9337 269.097 68.9337C375.135 68.9337 461.097 154.895 461.097 260.934Z" fill="white"/>
<path d="M264 0C406.213 0 524.5 114 515 258.5C496.73 536.4 692.385 506.516 679.5 516C679.5 516 336.66 516 264 516C121.787 516 0 400.713 0 258.5C0 116.287 121.787 0 264 0ZM251 69.7753V182.429H93.8276L145 228.429H280.036L136.495 362.047L145 411.685L233.857 334.26C237.781 340.423 242.505 345.978 247.724 350.923C262.639 365.056 282.073 374.828 300.504 381.714C323.019 390.126 346.44 395.104 363.887 397.987C372.688 399.442 380.146 400.391 385.444 400.98C388.097 401.276 390.218 401.482 391.705 401.616C392.449 401.683 393.035 401.732 393.451 401.766C393.659 401.782 393.825 401.795 393.946 401.805L394.146 401.82C394.152 401.821 394.159 401.821 394.164 401.821C394.166 401.821 394.171 401.822 394.171 401.822C394.174 401.823 394.178 401.822 395.833 378.882C397.45 356.477 397.491 355.954 397.494 355.942H397.504C397.498 355.942 397.481 355.941 397.453 355.938C397.398 355.934 397.299 355.927 397.16 355.916C396.881 355.893 396.436 355.856 395.839 355.802C394.644 355.694 392.842 355.52 390.529 355.263C385.897 354.747 379.257 353.904 371.386 352.604C355.489 349.977 335.27 345.598 316.604 338.624C300.926 332.766 287.938 325.657 279.364 317.532C273.872 312.328 270.531 307.104 269.097 301.457L347.548 228.429H458.357L403 182.429H297V117L251 69.7753Z" fill="#176C60"/>
</svg>
